<mxfile host="app.diagrams.net" modified="2024-01-25T20:57:56.428Z" agent="Mozilla/5.0 (Windows NT 10.0; Win64; x64) AppleWebKit/537.36 (KHTML, like Gecko) Chrome/120.0.0.0 Safari/537.36" version="22.1.21" etag="QdIEBQDXBx1aQrD9s_lu" type="github">
  <diagram name="Page-1" id="rrD74cmHzvlG230cuQTa">
    <mxGraphModel>
      <root>
        <mxCell id="0" />
        <mxCell id="1" parent="0" />
      </root>
    </mxGraphModel>
  </diagram>
</mxfile>
